<svg xmlns="http://www.w3.org/2000/svg" xmlns:xlink="http://www.w3.org/1999/xlink" version="1.1" x="0px" y="0px" viewBox="0 0 100 125" style="enable-background:new 0 0 100 100;" xml:space="preserve"><g><path d="M31.8,60.6c-3.4,0-6.1,2.7-6.1,6.1c0,3.4,2.7,6.1,6.1,6.1s6.1-2.7,6.1-6.1C37.9,63.3,35.1,60.6,31.8,60.6z M31.8,68.7   c-1.1,0-2-0.9-2-2s0.9-2,2-2s2,0.9,2,2S32.9,68.7,31.8,68.7z"/><path d="M68.2,60.6c-3.4,0-6.1,2.7-6.1,6.1c0,3.4,2.7,6.1,6.1,6.1s6.1-2.7,6.1-6.1C74.3,63.3,71.6,60.6,68.2,60.6z M68.2,68.7   c-1.1,0-2-0.9-2-2s0.9-2,2-2s2,0.9,2,2S69.3,68.7,68.2,68.7z"/><path d="M60.2,50.5c7.8,0,14.2-6.4,14.2-14.2c0-1.1-0.9-2-2-2c-1.1,0-2,0.9-2,2c0,5.6-4.5,10.1-10.1,10.1c-1.1,0-2,0.9-2,2   S59.1,50.5,60.2,50.5z"/><path d="M53.5,64.7h-7.1c-2.5,0-4.6,2-4.6,4.6v1c0,2.5,2,4.6,4.6,4.6h7.1c2.5,0,4.6-2,4.6-4.6v-1C58.1,66.7,56,64.7,53.5,64.7z    M54,70.2c0,0.3-0.2,0.5-0.5,0.5h-7.1c-0.3,0-0.5-0.2-0.5-0.5v-1c0-0.3,0.2-0.5,0.5-0.5h7.1c0.3,0,0.5,0.2,0.5,0.5V70.2z"/><path d="M92.5,25v-0.8c0-1.1-0.9-2-2-2h-6.1c-0.4-5.2-4.2-9.4-9-10.7v-0.4c0-3.3-2.7-6.1-6.1-6.1H30.8c-3.3,0-6.1,2.7-6.1,6.1v0.4   c-4.9,1.3-8.6,5.5-9,10.7H9.6c-1.1,0-2,0.9-2,2V25c-0.6,0.6-1,1.4-1,2.2v10.1c0,0.9,0.4,1.7,1,2.2v0.8c0,1.1,0.9,2,2,2h6.1v28.3   c0,4.8,2.8,9,6.9,10.9v2.5c0,6,4.9,10.8,10.8,10.8h0.9c6,0,10.8-4.9,10.8-10.8v-1.3h9.8v1.3c0,6,4.9,10.8,10.8,10.8h0.9   c6,0,10.8-4.9,10.8-10.8v-2.5c4.1-2,6.9-6.1,6.9-10.9V42.4h6.1c1.1,0,2-0.9,2-2v-0.8c0.6-0.6,1-1.4,1-2.2V27.2   C93.5,26.4,93.1,25.6,92.5,25z M30.8,9h38.4c1.1,0,2,0.9,2,2H28.8C28.8,10,29.7,9,30.8,9z M21.7,23.2c0-3.3,2.7-6.1,6.1-6.1h44.5   c3.3,0,6.1,2.7,6.1,6.1v21.7c0,5.1-4.2,9.3-9.3,9.3H31c-5.1,0-9.3-4.2-9.3-9.3V23.2z M12.4,38.4c0.1-0.3,0.2-0.7,0.2-1V27.2   c0-0.4-0.1-0.7-0.2-1h3.2v12.1H12.4z M34.3,88.9h-0.9c-2.6,0-4.8-2.1-4.8-4.8v-1.3H39v1.3C39,86.8,36.9,88.9,34.3,88.9z M66.6,88.9   h-0.9c-2.6,0-4.8-2.1-4.8-4.8v-1.3h10.4v1.3C71.4,86.8,69.2,88.9,66.6,88.9z M72.2,76.8H27.8c-3.3,0-6.1-2.7-6.1-6.1V54.4   c2.4,2.3,5.7,3.8,9.3,3.8H69c3.6,0,6.9-1.4,9.3-3.8v16.3C78.3,74.1,75.6,76.8,72.2,76.8z M84.4,26.2h3.2c-0.1,0.3-0.2,0.7-0.2,1   v10.1c0,0.4,0.1,0.7,0.2,1h-3.2V26.2z"/></g><text x="0" y="115" fill="#000000" font-size="5px" font-weight="bold" font-family="'Helvetica Neue', Helvetica, Arial-Unicode, Arial, Sans-serif">Created by IconMark</text><text x="0" y="120" fill="#000000" font-size="5px" font-weight="bold" font-family="'Helvetica Neue', Helvetica, Arial-Unicode, Arial, Sans-serif">from the Noun Project</text></svg>